<svg id='Clown_Fish_24' width='24' height='24' viewBox='0 0 24 24' xmlns='http://www.w3.org/2000/svg' xmlns:xlink='http://www.w3.org/1999/xlink'><rect width='24' height='24' stroke='none' fill='#000000' opacity='0'/>


<g transform="matrix(0.2 0 0 0.2 12 12)" >
<g style="" >
<g transform="matrix(1 0 0 1 9.26 22.69)" >
<path style="stroke: none; stroke-width: 1; stroke-dasharray: none; stroke-linecap: butt; stroke-dashoffset: 0; stroke-linejoin: miter; stroke-miterlimit: 4; fill: rgb(232,86,84); fill-rule: nonzero; opacity: 1;" transform=" translate(-59.26, -72.69)" d="M 73 67.384 C 73 67.384 59.674 78 51.643 78 C 43.365 78 45.871 67.598 45.871 67.598 L 73 67.384 z" stroke-linecap="round" />
</g>
<g transform="matrix(1 0 0 1 7.76 -23.56)" >
<path style="stroke: none; stroke-width: 1; stroke-dasharray: none; stroke-linecap: butt; stroke-dashoffset: 0; stroke-linejoin: miter; stroke-miterlimit: 4; fill: rgb(232,86,84); fill-rule: nonzero; opacity: 1;" transform=" translate(-57.76, -26.44)" d="M 70.5 32.384 C 70.5 32.384 57.663 20.378 51.441 20.5 C 43.150000000000006 20.665 45.252 31.380000000000003 45.252 31.380000000000003 L 70.5 32.384 z" stroke-linecap="round" />
</g>
<g transform="matrix(1 0 0 1 -17.79 -15.36)" >
<path style="stroke: none; stroke-width: 1; stroke-dasharray: none; stroke-linecap: butt; stroke-dashoffset: 0; stroke-linejoin: miter; stroke-miterlimit: 4; fill: rgb(232,86,84); fill-rule: nonzero; opacity: 1;" transform=" translate(-32.21, -34.64)" d="M 24.324 41 C 26.968000000000004 40.076 15.450000000000001 19.45 40.514 32.729 C 40.514 32.729 25.11 41.016 24.324 41 z" stroke-linecap="round" />
</g>
<g transform="matrix(1 0 0 1 -17.99 17.72)" >
<path style="stroke: none; stroke-width: 1; stroke-dasharray: none; stroke-linecap: butt; stroke-dashoffset: 0; stroke-linejoin: miter; stroke-miterlimit: 4; fill: rgb(232,86,84); fill-rule: nonzero; opacity: 1;" transform=" translate(-32.01, -67.72)" d="M 24.293 61.446 C 24.218999999999998 61.419 18.259 82.346 40.513999999999996 70.219 C 40.514 70.219 25.078 61.43 24.293 61.446 z" stroke-linecap="round" />
</g>
<g transform="matrix(1 0 0 1 -41.05 1.64)" >
<path style="stroke: none; stroke-width: 1; stroke-dasharray: none; stroke-linecap: butt; stroke-dashoffset: 0; stroke-linejoin: miter; stroke-miterlimit: 4; fill: rgb(232,86,84); fill-rule: nonzero; opacity: 1;" transform=" translate(-8.95, -51.64)" d="M 9.5 52 C 9.5 46.66 10.949 41.147999999999996 12.914 40.24 C 8.958 39.008 4.966 43.026 4.966 52 C 4.966 61.058 8.954 64.21000000000001 12.942 63 C 10.927 62.096 9.5 57.438 9.5 52 z" stroke-linecap="round" />
</g>
<g transform="matrix(1 0 0 1 2.23 1.34)" >
<path style="stroke: none; stroke-width: 1; stroke-dasharray: none; stroke-linecap: butt; stroke-dashoffset: 0; stroke-linejoin: miter; stroke-miterlimit: 4; fill: rgb(240,124,124); fill-rule: nonzero; opacity: 1;" transform=" translate(-52.23, -51.34)" d="M 19.514 45 C 19.514 45 15.994 41.48 12.483999999999998 40.24 C 10.75 41.148 9.466 46.66 9.466 52 C 9.466 57.438 10.722 62.096000000000004 12.5 63 C 15.975999999999999 61.804 19.503999999999998 57.994 19.514 58 C 19.514 57.998 21.514 49.004 19.514 45 z M 40.504 32.708 C 30.316 35.77 24.514 41 24.296 41.016 C 23.798 43.604 23.514 49.771 23.514 52.501 C 23.514 55.129 23.788 58.891999999999996 24.252 61.388 C 22.849999999999998 60.406 32.367999999999995 67.42999999999999 40.498 69.976 C 38.576 64.91 37.513999999999996 58.231 37.513999999999996 52.501 C 37.514 46.767 38.578 37.776 40.504 32.708 z M 95 50.384 C 95 46.448 84.394 37.292 74.524 33.866 C 72.296 37.7 71 43.135 71 47.889 C 71 53.581 72.856 62.526 75.958 66.808 C 85.214 62.18 95 54.128 95 50.384 z" stroke-linecap="round" />
</g>
<g transform="matrix(1 0 0 1 6.88 1.35)" >
<path style="stroke: none; stroke-width: 1; stroke-dasharray: none; stroke-linecap: butt; stroke-dashoffset: 0; stroke-linejoin: miter; stroke-miterlimit: 4; fill: rgb(240,124,124); fill-rule: nonzero; opacity: 1;" transform=" translate(-56.88, -51.35)" d="M 70.602 32.648 C 66.632 31.554 55.132 31 51.514 31 C 49.400000000000006 31 47.348 31.208 45.36 31.548000000000002 C 42.914 36.872 41.513999999999996 46.271 41.513999999999996 52.501000000000005 C 41.513999999999996 58.733000000000004 42.916 65.82600000000001 45.361999999999995 71.152 C 47.32599999999999 71.488 49.367999999999995 71.696 51.513999999999996 71.696 C 55.63399999999999 71.696 67.756 70.364 72.25 68.5 C 68.944 63.678 67 54.161 67 47.889 C 67 42.737 68.304 36.886 70.602 32.648 z" stroke-linecap="round" />
</g>
<g transform="matrix(1 0 0 1 -38.93 1.62)" >
<path style="stroke: none; stroke-width: 1; stroke-dasharray: none; stroke-linecap: butt; stroke-dashoffset: 0; stroke-linejoin: miter; stroke-miterlimit: 4; fill: rgb(0,0,0); fill-rule: nonzero; opacity: 1;" transform=" translate(-11.07, -51.62)" d="M 12.737 63.456 C 10.537 62.469 9 57.758 9 52 C 9 46.837 10.386 40.857 12.705 39.786 L 13.124 40.694 C 11.459 41.463 10 46.746 10 52 C 10 57.207 11.353 61.739000000000004 13.146 62.544 L 12.737 63.456 z" stroke-linecap="round" />
</g>
<g transform="matrix(1 0 0 1 -2.26 1)" >
<path style="stroke: none; stroke-width: 1; stroke-dasharray: none; stroke-linecap: butt; stroke-dashoffset: 0; stroke-linejoin: miter; stroke-miterlimit: 4; fill: rgb(254,253,239); fill-rule: nonzero; opacity: 1;" transform=" translate(-47.74, -51)" d="M 46 31 C 45.996 31 41.326 32.484 40.579 32.702 C 40.571 32.704 40.563 32.705999999999996 40.557 32.708 C 38.597 37.775999999999996 37.514 46.766999999999996 37.514 52.501 C 37.514 58.230999999999995 38.595000000000006 64.91 40.551 69.976 C 40.553000000000004 69.976 40.555 69.978 40.559000000000005 69.978 C 41.348 70.22 45.996 70.998 46 71 C 43 65.5 42 56.732 42 50.5 C 42 44.27 43.511 36.324 46 31 z M 23.514 52.501 C 23.514 49.771 23.798 43.604 24.298 41.016 C 22.473999999999997 42.37 21.112 43.534 20.319999999999997 44.248 C 20.313999999999997 44.251999999999995 20.305999999999997 44.26 20.299999999999997 44.266 C 20.041999999999998 44.5 19.842 44.684 19.714 44.808 C 19.587999999999997 46.19 19.514 51.087 19.514 52.501 C 19.514 54.004999999999995 19.592 56.687999999999995 19.732 58.153999999999996 C 19.898 58.273999999999994 20.066 58.394 20.232 58.513999999999996 C 21.526 59.44199999999999 22.849999999999998 60.403999999999996 24.252 61.388 C 23.788 58.892 23.514 55.129 23.514 52.501 z M 74.444 33.866 C 73.08 33.418 71.69500000000001 33.012 70.303 32.647999999999996 C 67.877 36.886 66.5 43.348 66.5 48.5 C 66.5 53.5 67 62 72.043 68.5 C 72.284 68.406 72.527 68.312 72.765 68.214 C 73.206 68.038 73.652 67.838 74.095 67.652 C 74.722 67.38 75.345 67.1 75.96 66.808 C 72.68299999999999 62.52600000000001 70.723 53.581 70.723 47.88900000000001 C 70.723 43.135 72.092 37.7 74.444 33.866 z" stroke-linecap="round" />
</g>
<g transform="matrix(1 0 0 1 9.34 23.32)" >
<path style="stroke: none; stroke-width: 1; stroke-dasharray: none; stroke-linecap: butt; stroke-dashoffset: 0; stroke-linejoin: miter; stroke-miterlimit: 4; fill: rgb(0,0,0); fill-rule: nonzero; opacity: 1;" transform=" translate(-59.34, -73.32)" d="M 52 80 C 50.013 80 48.405 79.384 47.222 78.17 C 45.297000000000004 76.19500000000001 44.962 73.05 45.021 70.76 L 47.02 70.811 C 46.972 72.71700000000001 47.216 75.298 48.654 76.774 C 49.458 77.599 50.552 78 52 78 C 59.38 78 72.209 66.748 72.338 66.634 L 73.66199999999999 68.133 C 73.113 68.618 60.129 80 52 80 z" stroke-linecap="round" />
</g>
<g transform="matrix(1 0 0 1 7.1 -24.19)" >
<path style="stroke: none; stroke-width: 1; stroke-dasharray: none; stroke-linecap: butt; stroke-dashoffset: 0; stroke-linejoin: miter; stroke-miterlimit: 4; fill: rgb(0,0,0); fill-rule: nonzero; opacity: 1;" transform=" translate(-57.1, -25.81)" d="M 68.809 32.623 C 63.189 27.244999999999997 55.275 20.998999999999995 51.372 20.998999999999995 C 51.347 20.998999999999995 51.322 20.998999999999995 51.297 20.999999999999996 C 49.653 21.034999999999997 48.431 21.571999999999996 47.559999999999995 22.641 C 45.227 25.503 46.218999999999994 31.085 46.22899999999999 31.141 L 44.26199999999999 31.502 C 44.212999999999994 31.235999999999997 43.099 24.948 46.00899999999999 21.377 C 47.254999999999995 19.848 49.019999999999996 19.048 51.25399999999999 19 C 56.858999999999995 18.858 67.17399999999999 28.291 70.19099999999999 31.178 L 68.809 32.623 z" stroke-linecap="round" />
</g>
<g transform="matrix(1 0 0 1 -18.07 -16.29)" >
<path style="stroke: none; stroke-width: 1; stroke-dasharray: none; stroke-linecap: butt; stroke-dashoffset: 0; stroke-linejoin: miter; stroke-miterlimit: 4; fill: rgb(0,0,0); fill-rule: nonzero; opacity: 1;" transform=" translate(-31.93, -33.71)" d="M 23.559 40.218 C 22.205000000000002 34.148 22.786 30.134000000000004 25.285 28.286 C 28.223 26.115000000000002 33.366 27.17 41.008 31.516000000000002 L 40.02 33.254000000000005 C 31.568000000000005 28.448000000000004 27.989000000000004 28.774000000000004 26.474000000000004 29.894000000000005 C 24.695000000000004 31.209000000000007 24.362000000000002 34.629000000000005 25.511000000000003 39.782000000000004 L 23.559 40.218 z" stroke-linecap="round" />
</g>
<g transform="matrix(1 0 0 1 -18.25 17.27)" >
<path style="stroke: none; stroke-width: 1; stroke-dasharray: none; stroke-linecap: butt; stroke-dashoffset: 0; stroke-linejoin: miter; stroke-miterlimit: 4; fill: rgb(0,0,0); fill-rule: nonzero; opacity: 1;" transform=" translate(-31.75, -67.27)" d="M 29.525 73.992 C 27.499 73.992 25.918 73.372 24.791999999999998 72.13000000000001 C 21.541999999999998 68.546 23.676 61.30500000000001 23.912 60.94900000000001 L 25.078 60.55600000000001 L 24.748 61.500000000000014 L 25.673000000000002 61.87300000000001 C 25.317 62.875000000000014 23.969 68.83000000000001 26.566000000000003 71.07100000000001 C 28.662000000000003 72.88000000000001 33.151 72.046 39.54600000000001 68.65400000000001 L 40.48400000000001 70.421 C 35.995 72.8 32.333 73.992 29.525 73.992 z" stroke-linecap="round" />
</g>
<g transform="matrix(1 0 0 1 -2.26 1.35)" >
<path style="stroke: none; stroke-width: 1; stroke-dasharray: none; stroke-linecap: butt; stroke-dashoffset: 0; stroke-linejoin: miter; stroke-miterlimit: 4; fill: rgb(0,0,0); fill-rule: nonzero; opacity: 1;" transform=" translate(-47.74, -51.35)" d="M 45.362 71.652 C 45.173 71.652 44.991 71.544 44.907000000000004 71.36 C 42.469 66.051 41.013000000000005 59.001 41.013000000000005 52.501 C 41.013000000000005 51.272 41.063 47.634 41.156000000000006 46.459999999999994 C 41.178000000000004 46.184999999999995 41.409000000000006 45.983999999999995 41.694 46.00099999999999 C 41.969 46.02299999999999 42.174 46.26399999999999 42.153000000000006 46.53899999999999 C 42.062000000000005 47.685999999999986 42.013000000000005 51.28299999999999 42.013000000000005 52.499999999999986 C 42.013000000000005 58.768999999999984 43.470000000000006 65.83499999999998 45.816 70.94199999999998 C 45.931000000000004 71.19299999999998 45.821000000000005 71.48999999999998 45.57 71.60499999999998 C 45.503 71.637 45.432 71.652 45.362 71.652 z M 40.498 70.476 C 40.296 70.476 40.105999999999995 70.353 40.031 70.153 C 38.17 65.24900000000001 37.013999999999996 58.48500000000001 37.013999999999996 52.501000000000005 C 37.013999999999996 46.676 38.074 37.697 40.037 32.53 C 40.135 32.272 40.423 32.141 40.682 32.24 C 40.940000000000005 32.338 41.07 32.627 40.972 32.885000000000005 C 39.121 37.757000000000005 38.014 46.684000000000005 38.014 52.5 C 38.014 58.372 39.145 65 40.966 69.798 C 41.064 70.056 40.934000000000005 70.345 40.676 70.443 C 40.617 70.466 40.557 70.476 40.498 70.476 z M 72.25 69 C 72.091 69 71.934 68.924 71.837 68.783 C 70.431 66.732 69.25500000000001 64.296 68.34100000000001 61.541000000000004 C 68.254 61.279 68.39600000000002 60.996 68.658 60.909000000000006 C 68.92 60.824000000000005 69.203 60.964000000000006 69.29 61.226000000000006 C 70.162 63.85300000000001 71.328 66.271 72.662 68.21700000000001 C 72.81800000000001 68.44500000000001 72.76 68.75600000000001 72.53200000000001 68.912 C 72.446 68.972 72.348 69 72.25 69 z M 75.96 67.308 C 75.80499999999999 67.308 75.65199999999999 67.236 75.55499999999999 67.10100000000001 C 72.433 62.794 70.5 53.775 70.5 47.889 C 70.5 42.897000000000006 71.876 37.42700000000001 74.092 33.615 C 74.231 33.376000000000005 74.538 33.295 74.775 33.434000000000005 C 75.01400000000001 33.57300000000001 75.095 33.879000000000005 74.956 34.117000000000004 C 72.824 37.786 71.5 43.063 71.5 47.889 C 71.5 53.619 73.36 62.369 76.365 66.51400000000001 C 76.527 66.73800000000001 76.47699999999999 67.05000000000001 76.25399999999999 67.212 C 76.165 67.277 76.062 67.308 75.96 67.308 z M 24.251 61.888 C 24.015 61.888 23.805 61.72 23.76 61.479 C 23.270000000000003 58.841 23.013 54.964999999999996 23.013 52.5 C 23.013 49.892 23.285 43.616 23.806 40.92 C 23.858 40.649 24.121000000000002 40.47 24.391000000000002 40.524 C 24.662000000000003 40.576 24.840000000000003 40.838 24.787000000000003 41.109 C 24.321 43.521 24.012000000000004 49.562 24.012000000000004 52.499 C 24.012000000000004 54.918 24.262000000000004 58.716 24.742000000000004 61.295 C 24.792000000000005 61.566 24.613000000000003 61.827 24.342000000000006 61.878 C 24.312 61.886 24.282 61.888 24.251 61.888 z M 67.965 58.884 C 67.739 58.884 67.533 58.729 67.479 58.499 C 67.081 56.822 66.79899999999999 55.116 66.643 53.429 C 66.618 53.154 66.82000000000001 52.911 67.095 52.885000000000005 C 67.373 52.85300000000001 67.613 53.062000000000005 67.639 53.337 C 67.791 54.977000000000004 68.064 56.636 68.451 58.268 C 68.51499999999999 58.537 68.34899999999999 58.806 68.08 58.87 C 68.042 58.88 68.003 58.884 67.965 58.884 z M 19.731 58.654 C 19.476000000000003 58.654 19.258000000000003 58.46 19.234 58.201 C 19.098000000000003 56.776 19.013 54.133 19.013 52.501 C 19.013 51.126999999999995 19.085 46.193999999999996 19.215000000000003 44.763 C 19.240000000000002 44.488 19.481 44.283 19.758000000000003 44.309999999999995 C 20.033 44.334999999999994 20.236000000000004 44.57899999999999 20.211000000000002 44.852999999999994 C 20.085 46.230999999999995 20.013 51.181 20.013 52.49999999999999 C 20.013 54.108999999999995 20.096 56.709999999999994 20.229000000000003 58.10499999999999 C 20.255000000000003 58.37999999999999 20.054000000000002 58.62399999999999 19.779000000000003 58.64999999999999 C 19.763 58.653 19.747 58.654 19.731 58.654 z M 67 50.889 C 66.74 50.889 66.521 50.688 66.502 50.425000000000004 C 66.05 44.205000000000005 67.419 37.470000000000006 70.163 32.409000000000006 C 70.295 32.166000000000004 70.599 32.07600000000001 70.841 32.208000000000006 C 71.08399999999999 32.339000000000006 71.17399999999999 32.64300000000001 71.04199999999999 32.886 C 68.99099999999999 36.669000000000004 66.98299999999999 43.244 67.49899999999998 50.353 C 67.51899999999998 50.628 67.31199999999998 50.868 67.03699999999998 50.888 C 67.024 50.889 67.012 50.889 67 50.889 z M 42.06 43.5 C 42.035000000000004 43.5 42.010000000000005 43.498 41.984 43.494 C 41.711 43.452 41.524 43.198 41.565000000000005 42.925 C 41.82600000000001 41.211999999999996 42.176 39.512 42.606 37.873 C 42.675000000000004 37.605 42.951 37.445 43.216 37.516999999999996 C 43.483000000000004 37.586999999999996 43.643 37.86 43.572 38.126999999999995 C 43.151 39.73199999999999 42.808 41.397 42.552 43.074999999999996 C 42.516 43.323 42.303 43.5 42.06 43.5 z M 43.991 35.5 C 43.938 35.5 43.883 35.492 43.83 35.473 C 43.568 35.384 43.428999999999995 35.1 43.518 34.839 C 43.936 33.612 44.403 32.435 44.905 31.339 C 45.02 31.087999999999997 45.317 30.979 45.568 31.093 C 45.818999999999996 31.208 45.928999999999995 31.505 45.814 31.756 C 45.325 32.82 44.871 33.966 44.464 35.161 C 44.394 35.369 44.199 35.5 43.991 35.5 z" stroke-linecap="round" />
</g>
<g transform="matrix(1 0 0 1 -0.02 0.75)" >
<path style="stroke: none; stroke-width: 1; stroke-dasharray: none; stroke-linecap: butt; stroke-dashoffset: 0; stroke-linejoin: miter; stroke-miterlimit: 4; fill: rgb(0,0,0); fill-rule: nonzero; opacity: 1;" transform=" translate(-49.98, -50.75)" d="M 51.514 72 C 49.458000000000006 72 47.391000000000005 71.818 45.195 71.445 C 45.189 71.445 45.184 71.443 45.179 71.443 C 44.348 71.3 41.101 70.51899999999999 40.232 70.25399999999999 C 40.222 70.25099999999999 40.211 70.24799999999999 40.201 70.24499999999999 C 35.921 68.91199999999999 26.407 63.94199999999999 23.794 61.63499999999999 C 23.755 61.61499999999999 23.717 61.59299999999999 23.681 61.56699999999999 L 23.587 61.50299999999999 L 23.587 61.501999999999995 C 22.536 60.766999999999996 20.572 59.36299999999999 19.564 58.641999999999996 C 19.043 59.074999999999996 18.245 59.696 17.031 60.641999999999996 C 13.963999999999999 63.029999999999994 13.465 63.273999999999994 13.161999999999999 63.330999999999996 C 11.254 63.888 9.366 63.568999999999996 7.838999999999999 62.434999999999995 C 6.071999999999999 61.123 3.9659999999999984 58.14399999999999 3.9659999999999984 51.404999999999994 C 3.9659999999999984 45.88499999999999 5.515999999999998 41.583 8.219999999999999 39.602999999999994 C 9.719999999999999 38.504 11.495 38.199 13.215 38.742 C 13.247 38.751999999999995 13.279 38.763999999999996 13.31 38.778 C 13.638 38.92 14.458 39.474 16.924 41.184 C 17.804 41.794999999999995 18.921 42.568999999999996 19.579 43.004999999999995 C 19.596 42.989999999999995 19.612000000000002 42.974999999999994 19.629 42.958999999999996 C 19.636000000000003 42.952999999999996 19.644000000000002 42.946 19.652 42.93899999999999 L 19.652 42.93899999999999 C 20.319000000000003 42.340999999999994 21.731 41.120999999999995 23.701 39.66599999999999 L 23.701 39.66599999999999 C 24.59 38.92399999999999 30.643 34.10699999999999 40.217 31.24499999999999 C 40.988 31.01799999999999 44.411 30.19699999999999 45.176 30.06499999999999 L 45.176 30.06499999999999 C 45.185 30.06399999999999 45.194 30.06199999999999 45.203 30.06099999999999 C 47.411 29.68599999999999 49.475 29.50299999999999 51.513000000000005 29.50299999999999 C 54.705000000000005 29.50299999999999 66.595 30.00699999999999 70.86600000000001 31.17799999999999 C 72.22200000000001 31.54999999999999 73.56200000000001 31.96399999999999 74.85000000000001 32.40799999999999 C 84.733 35.818 96 44.93 96 49.509 C 96 53.958 85.655 62.429 76.405 67.031 C 75.799 67.334 72.885 68.64 72.631 68.744 C 67.804 70.736 55.44 72 51.514 72 z M 45.529 69.473 C 47.614 69.828 49.572 70 51.514 70 C 55.794000000000004 70 67.598 68.658 71.869 66.896 C 72.064 66.815 74.952 65.523 75.515 65.242 C 85.296 60.374 94 52.389 94 49.509 C 94 46.433 84.215 37.756 74.197 34.296 C 72.95 33.865 71.651 33.464 70.337 33.104 C 66.538 32.062 55.279 31.5 51.514 31.5 C 49.586000000000006 31.5 47.628 31.674 45.528000000000006 32.031 C 45.519000000000005 32.032 45.50900000000001 32.034 45.50000000000001 32.035 C 44.833000000000006 32.153 41.53600000000001 32.937 40.81000000000001 33.151999999999994 C 30.951000000000008 36.099999999999994 25.01000000000001 41.17099999999999 24.951000000000008 41.221999999999994 C 22.98700000000001 42.67699999999999 21.62900000000001 43.849999999999994 20.988000000000007 44.425 C 20.976000000000006 44.436 20.964000000000006 44.446 20.951000000000008 44.456999999999994 C 20.715000000000007 44.672 20.547000000000008 44.82599999999999 20.43200000000001 44.934999999999995 C 20.34800000000001 45.022 20.24700000000001 45.09499999999999 20.13500000000001 45.147999999999996 C 19.535000000000007 45.425 19.53700000000001 45.425999999999995 15.785000000000009 42.824 C 14.574000000000009 41.985 12.93200000000001 40.846 12.53800000000001 40.623 C 11.452000000000009 40.303 10.36800000000001 40.506 9.402000000000008 41.213 C 7.219000000000008 42.813 5.966000000000008 46.526 5.966000000000008 51.402 C 5.966000000000008 56.011 7.054000000000008 59.359 9.031000000000008 60.826 C 10.066000000000008 61.595 11.310000000000008 61.792 12.633000000000008 61.399 C 13.448000000000008 60.961 18.288000000000007 57.117000000000004 18.811000000000007 56.663000000000004 C 18.88200000000001 56.593 18.964000000000006 56.532000000000004 19.057000000000006 56.48500000000001 C 19.600000000000005 56.20700000000001 20.031000000000006 56.51500000000001 20.239000000000004 56.66400000000001 C 20.889000000000003 57.12900000000001 23.599000000000004 59.06900000000001 24.825000000000003 59.92600000000001 C 24.859 59.94900000000001 24.890000000000004 59.97500000000001 24.92 60.00200000000001 C 26.197000000000003 60.89600000000001 33.965 66.20100000000001 40.774 68.32900000000001 C 40.783 68.33200000000001 40.793 68.334 40.802 68.337 C 41.571 68.57600000000001 44.744 69.339 45.516 69.47200000000001 C 45.521 69.472 45.525 69.472 45.529 69.473 L 45.529 69.473 z M 12.805 61.36 C 12.805 61.36 12.804 61.36 12.802999999999999 61.36 C 12.804 61.361 12.804 61.361 12.805 61.36 z M 12.808 61.36 C 12.807 61.36 12.806 61.36 12.806 61.36 C 12.806 61.36 12.807 61.36 12.808 61.36 z" stroke-linecap="round" />
</g>
<g transform="matrix(1 0 0 1 30 -6.12)" >
<path style="stroke: none; stroke-width: 1; stroke-dasharray: none; stroke-linecap: butt; stroke-dashoffset: 0; stroke-linejoin: miter; stroke-miterlimit: 4; fill: rgb(31,33,43); fill-rule: nonzero; opacity: 1;" transform=" translate(-80, -43.88)" d="M 80 40.884 C 78.343 40.884 77 42.227000000000004 77 43.884 C 77 45.541 78.343 46.884 80 46.884 C 81.657 46.884 83 45.541 83 43.884 C 83 42.227000000000004 81.657 40.884 80 40.884 z" stroke-linecap="round" />
</g>
</g>
</g>
</svg>